<?xml version="1.0" encoding="UTF-8" standalone="no"?>
<!-- Created with Inkscape (http://www.inkscape.org/) -->

<svg
   xmlns:dc="http://purl.org/dc/elements/1.1/"
   xmlns:cc="http://creativecommons.org/ns#"
   xmlns:rdf="http://www.w3.org/1999/02/22-rdf-syntax-ns#"
   xmlns:svg="http://www.w3.org/2000/svg"
   xmlns="http://www.w3.org/2000/svg"
   xmlns:sodipodi="http://sodipodi.sourceforge.net/DTD/sodipodi-0.dtd"
   xmlns:inkscape="http://www.inkscape.org/namespaces/inkscape"
   width="210mm"
   height="297mm"
   viewBox="0 0 210 297"
   version="1.1"
   id="svg869"
   inkscape:export-filename="/home/tim/work/exams/try/imagemagick/crossonpage.png"
   inkscape:export-xdpi="200"
   inkscape:export-ydpi="200"
   inkscape:version="0.92.4 (5da689c313, 2019-01-14)"
   sodipodi:docname="regmarks.svg">
  <defs
     id="defs863" />
  <sodipodi:namedview
     id="base"
     pagecolor="#ffffff"
     bordercolor="#666666"
     borderopacity="1.0"
     inkscape:pageopacity="0.0"
     inkscape:pageshadow="2"
     inkscape:zoom="5.6"
     inkscape:cx="450.82697"
     inkscape:cy="534.53392"
     inkscape:document-units="mm"
     inkscape:current-layer="layer1"
     showgrid="false"
     inkscape:snap-global="false"
     inkscape:window-width="1850"
     inkscape:window-height="1136"
     inkscape:window-x="70"
     inkscape:window-y="27"
     inkscape:window-maximized="1" />
  <metadata
     id="metadata866">
    <rdf:RDF>
      <cc:Work
         rdf:about="">
        <dc:format>image/svg+xml</dc:format>
        <dc:type
           rdf:resource="http://purl.org/dc/dcmitype/StillImage" />
        <dc:title></dc:title>
      </cc:Work>
    </rdf:RDF>
  </metadata>
  <g
     inkscape:groupmode="layer"
     id="layer2"
     inkscape:label="bg"
     style="display:inline"
     sodipodi:insensitive="true">
    <rect
       style="opacity:1;fill:#ffffff;fill-opacity:1;stroke:none;stroke-width:2;stroke-miterlimit:4;stroke-dasharray:none;stroke-dashoffset:9.44881821;stroke-opacity:1"
       id="rect1430"
       width="210.15475"
       height="296.7113"
       x="0.37797621"
       y="-0.089285865"
       rx="1.7008924"
       ry="1.7008924" />
  </g>
  <g
     inkscape:label="Layer 1"
     inkscape:groupmode="layer"
     id="layer1"
     style="display:inline">
    <rect
       style="opacity:1;fill:#000000;fill-opacity:1;stroke:none;stroke-width:0.06997625;stroke-miterlimit:4;stroke-dasharray:none;stroke-dashoffset:9.44881821;stroke-opacity:1"
       id="rect1482"
       width="4.1151795"
       height="3.3575733"
       x="111.25047"
       y="156.12091"
       rx="0.38822433"
       ry="0.32731077" />
    <rect
       transform="rotate(90)"
       ry="0.33944222"
       rx="0.33944222"
       y="-121.12645"
       x="151.73412"
       height="5.8836665"
       width="1.9612222"
       id="rect1488"
       style="opacity:1;fill:#000000;fill-opacity:1;stroke:none;stroke-width:2;stroke-miterlimit:4;stroke-dasharray:none;stroke-dashoffset:9.44881821;stroke-opacity:1" />
    <rect
       style="opacity:1;fill:#000000;fill-opacity:1;stroke:none;stroke-width:1.44315839;stroke-miterlimit:4;stroke-dasharray:none;stroke-dashoffset:9.44881821;stroke-opacity:1"
       id="rect1490"
       width="1.1594136"
       height="5.1820841"
       x="-133.88525"
       y="-161.18727"
       rx="0.20066769"
       ry="0.29896632"
       transform="scale(-1)" />
    <rect
       style="opacity:1;fill:#ffffff;fill-opacity:1;stroke:none;stroke-width:1.99999976;stroke-miterlimit:4;stroke-dasharray:none;stroke-dashoffset:9.44881821;stroke-opacity:1"
       id="rect1414"
       width="1.4257557"
       height="5.3167024"
       x="151.96844"
       y="-120.95297"
       rx="0.24676536"
       ry="0.30673271"
       transform="rotate(90)" />
    <rect
       transform="scale(-1)"
       ry="0.27947485"
       rx="0.27947485"
       y="-152.27113"
       x="-121.77792"
       height="4.8442321"
       width="1.6147439"
       id="rect1416"
       style="opacity:1;fill:#ffffff;fill-opacity:1;stroke:none;stroke-width:2;stroke-miterlimit:4;stroke-dasharray:none;stroke-dashoffset:9.44881821;stroke-opacity:1" />
    <rect
       transform="rotate(90)"
       ry="1.1121219"
       rx="1.1121219"
       y="-198.81548"
       x="13.139881"
       height="19.276787"
       width="6.4255953"
       id="rect1418"
       style="opacity:1;fill:#000000;fill-opacity:1;stroke:none;stroke-width:2;stroke-miterlimit:4;stroke-dasharray:none;stroke-dashoffset:9.44881821;stroke-opacity:1" />
    <rect
       style="opacity:1;fill:#000000;fill-opacity:1;stroke:none;stroke-width:2;stroke-miterlimit:4;stroke-dasharray:none;stroke-dashoffset:9.44881821;stroke-opacity:1"
       id="rect1420"
       width="6.4255953"
       height="19.276787"
       x="-192.38988"
       y="-25.991074"
       rx="1.1121219"
       ry="1.1121219"
       transform="scale(-1)" />
    <rect
       style="opacity:1;fill:none;fill-opacity:1;stroke:none;stroke-width:2;stroke-miterlimit:4;stroke-dasharray:none;stroke-dashoffset:9.44881821;stroke-opacity:1"
       id="rect1432"
       width="61.610138"
       height="68.035713"
       x="0.37797621"
       y="-0.089285865"
       rx="1.7008924"
       ry="1.7008924" />
    <rect
       style="opacity:1;fill:none;fill-opacity:1;stroke:none;stroke-width:1.99999988;stroke-miterlimit:4;stroke-dasharray:none;stroke-dashoffset:9.44881821;stroke-opacity:1"
       id="rect1436"
       width="24.946428"
       height="25.324404"
       x="109.6131"
       y="141.65178"
       rx="1.6269405"
       ry="1.4799973" />
    <path
       d="m 102.06337,151.77164 a 5.3787994,5.3787994 0 0 1 -5.291522,-5.45846 5.3787994,5.3787994 0 0 1 5.452252,-5.29793 5.3787994,5.3787994 0 0 1 5.30432,5.44603 5.3787994,5.3787994 0 0 1 -5.4398,5.31071"
       sodipodi:open="true"
       sodipodi:end="1.582216"
       sodipodi:start="1.586911"
       sodipodi:ry="5.3787994"
       sodipodi:rx="5.3787994"
       sodipodi:cy="146.39354"
       sodipodi:cx="102.15005"
       sodipodi:type="arc"
       id="path1440"
       style="opacity:1;fill:#000000;fill-opacity:1;stroke:none;stroke-width:2;stroke-miterlimit:4;stroke-dasharray:none;stroke-dashoffset:9.44881821;stroke-opacity:1" />
    <path
       style="opacity:1;fill:#ffffff;fill-opacity:1;stroke:none;stroke-width:2;stroke-miterlimit:4;stroke-dasharray:none;stroke-dashoffset:9.44881821;stroke-opacity:1"
       id="path1438"
       sodipodi:type="arc"
       sodipodi:cx="102.15005"
       sodipodi:cy="146.39354"
       sodipodi:rx="3.7417734"
       sodipodi:ry="3.7417734"
       sodipodi:start="1.586911"
       sodipodi:end="1.582216"
       sodipodi:open="true"
       d="m 102.08975,150.13483 a 3.7417734,3.7417734 0 0 1 -3.681058,-3.79719 3.7417734,3.7417734 0 0 1 3.792868,-3.68552 3.7417734,3.7417734 0 0 1 3.68996,3.78854 3.7417734,3.7417734 0 0 1 -3.7842,3.69441" />
    <path
       style="opacity:1;fill:#000000;fill-opacity:1;stroke:none;stroke-width:2;stroke-miterlimit:4;stroke-dasharray:none;stroke-dashoffset:9.44881821;stroke-opacity:1"
       id="path1442"
       sodipodi:type="arc"
       sodipodi:cx="102.15005"
       sodipodi:cy="146.39354"
       sodipodi:rx="2.2049737"
       sodipodi:ry="2.2049737"
       sodipodi:start="1.586911"
       sodipodi:end="1.582216"
       sodipodi:open="true"
       d="m 102.11452,148.59823 a 2.2049737,2.2049737 0 0 1 -2.1692,-2.23763 2.2049737,2.2049737 0 0 1 2.23508,-2.17183 2.2049737,2.2049737 0 0 1 2.17445,2.23254 2.2049737,2.2049737 0 0 1 -2.22998,2.17706" />
    <path
       style="fill:none;stroke:#000000;stroke-width:0.26458332px;stroke-linecap:butt;stroke-linejoin:miter;stroke-opacity:1"
       d="m 95.53513,155.36377 h 10.57384"
       id="path1444"
       inkscape:connector-curvature="0" />
    <path
       inkscape:connector-curvature="0"
       id="path1450"
       d="m 109.43315,148.39806 h 1.05237"
       style="fill:none;stroke:#fefefe;stroke-width:0.26458332px;stroke-linecap:butt;stroke-linejoin:miter;stroke-opacity:1" />
    <path
       inkscape:connector-curvature="0"
       id="path1456"
       d="M 102.15007,141.00461 V 151.7455"
       style="fill:none;stroke:#fefefe;stroke-width:0.26458338px;stroke-linecap:butt;stroke-linejoin:miter;stroke-opacity:1" />
    <path
       style="fill:none;stroke:#fefefe;stroke-width:0.26458332px;stroke-linecap:butt;stroke-linejoin:miter;stroke-opacity:1"
       d="M 107.56227,146.41023 H 96.754564"
       id="path1460"
       inkscape:connector-curvature="0" />
    <path
       style="opacity:1;fill:#ff0000;fill-opacity:1;stroke:#070707;stroke-width:0.09999999;stroke-miterlimit:4;stroke-dasharray:none;stroke-dashoffset:9.44881821;stroke-opacity:1"
       id="path1468"
       sodipodi:type="arc"
       sodipodi:cx="92.905365"
       sodipodi:cy="147.88985"
       sodipodi:rx="2.0189593"
       sodipodi:ry="1.9488378"
       sodipodi:start="3.7670791"
       sodipodi:end="5.6451747"
       d="m 91.268638,146.74882 a 2.0189593,1.9488378 0 0 1 1.624084,-0.80777 2.0189593,1.9488378 0 0 1 1.634437,0.78807 l -1.621794,1.16073 z" />
    <path
       style="opacity:1;fill:#ff0000;fill-opacity:1;stroke:#070707;stroke-width:0.1;stroke-miterlimit:4;stroke-dasharray:none;stroke-dashoffset:9.44881821;stroke-opacity:1"
       id="path1470"
       sodipodi:type="arc"
       sodipodi:cx="92.18293"
       sodipodi:cy="143.45541"
       sodipodi:rx="1.3948128"
       sodipodi:ry="2.2568545"
       sodipodi:start="3.7670838"
       sodipodi:end="3.754524"
       d="m 91.052189,142.13404 a 1.3948128,2.2568545 0 0 1 1.943843,-0.51234 1.3948128,2.2568545 0 0 1 0.322745,3.14358 1.3948128,2.2568545 0 0 1 -1.941816,0.53208 1.3948128,2.2568545 0 0 1 -0.334939,-3.14024"
       sodipodi:open="true" />
    <path
       style="opacity:1;fill:#000000;fill-opacity:1;stroke:none;stroke-width:0.09999999;stroke-miterlimit:4;stroke-dasharray:none;stroke-dashoffset:9.44881821;stroke-opacity:1"
       id="path1472"
       sodipodi:type="arc"
       sodipodi:cx="102.26092"
       sodipodi:cy="146.5528"
       sodipodi:rx="4.193047"
       sodipodi:ry="4.3265815"
       sodipodi:start="0.00032186503"
       sodipodi:end="1.5683152"
       d="m 106.45396,146.55419 a 4.193047,4.3265815 0 0 1 -4.18264,4.32517 l -0.0104,-4.32656 z" />
    <path
       d="m -97.817573,-146.25087 a 4.193047,4.3265815 0 0 1 -4.182647,4.32518 l -0.0104,-4.32657 z"
       sodipodi:end="1.5683152"
       sodipodi:start="0.00032186503"
       sodipodi:ry="4.3265815"
       sodipodi:rx="4.193047"
       sodipodi:cy="-146.25226"
       sodipodi:cx="-102.01062"
       sodipodi:type="arc"
       id="path1474"
       style="opacity:1;fill:#000000;fill-opacity:1;stroke:none;stroke-width:0.09999999;stroke-miterlimit:4;stroke-dasharray:none;stroke-dashoffset:9.44881821;stroke-opacity:1"
       transform="scale(-1)" />
    <path
       d="m 102.1339,147.39567 a 1.0022608,1.0022608 0 0 1 -0.986,-1.0171 1.0022608,1.0022608 0 0 1 1.01595,-0.9872 1.0022608,1.0022608 0 0 1 0.98838,1.01479 1.0022608,1.0022608 0 0 1 -1.01363,0.98957"
       sodipodi:open="true"
       sodipodi:end="1.582216"
       sodipodi:start="1.586911"
       sodipodi:ry="1.0022608"
       sodipodi:rx="1.0022608"
       sodipodi:cy="146.39354"
       sodipodi:cx="102.15005"
       sodipodi:type="arc"
       id="path1448"
       style="opacity:1;fill:#ffffff;fill-opacity:1;stroke:none;stroke-width:1.99999988;stroke-miterlimit:4;stroke-dasharray:none;stroke-dashoffset:9.44881821;stroke-opacity:1" />
    <rect
       style="opacity:1;fill:#000000;fill-opacity:1;stroke:none;stroke-width:0.1;stroke-miterlimit:4;stroke-dasharray:none;stroke-dashoffset:9.44881821;stroke-opacity:1"
       id="rect1476"
       width="2.1214519"
       height="2.1214519"
       x="109.34665"
       y="145.94261"
       rx="1.7008924"
       ry="1.7008924" />
    <rect
       style="opacity:1;fill:#000000;fill-opacity:1;stroke:none;stroke-width:0.1;stroke-miterlimit:4;stroke-dasharray:none;stroke-dashoffset:9.44881821;stroke-opacity:1"
       id="rect1478"
       width="0.06681738"
       height="0.03340869"
       x="110.04823"
       y="147.06178"
       rx="1.7008924"
       ry="0.03340869" />
    <rect
       style="opacity:1;fill:#000000;fill-opacity:1;stroke:none;stroke-width:0.1;stroke-miterlimit:4;stroke-dasharray:none;stroke-dashoffset:9.44881821;stroke-opacity:1"
       id="rect1480"
       width="1.7706606"
       height="1.7706606"
       x="108.32768"
       y="150.5697"
       rx="1.7008924"
       ry="1.7008924" />
    <rect
       style="opacity:1;fill:#ffffff;fill-opacity:1;stroke:#000000;stroke-width:1;stroke-miterlimit:4;stroke-dasharray:none;stroke-dashoffset:9.44881821;stroke-opacity:1"
       id="rect1498"
       width="5.0554318"
       height="2.5277159"
       x="125.51172"
       y="147.01433"
       rx="0.24676523"
       ry="0.30673143" />
    <rect
       ry="0.30673143"
       rx="0.24676523"
       y="-129.30328"
       x="145.75047"
       height="2.5277159"
       width="5.0554318"
       id="rect1500"
       style="opacity:1;fill:#000000;fill-opacity:1;stroke:#000000;stroke-width:1;stroke-miterlimit:4;stroke-dasharray:none;stroke-dashoffset:9.44881821;stroke-opacity:1"
       transform="rotate(90)" />
    <rect
       style="opacity:1;fill:#ffffff;fill-opacity:1;stroke:none;stroke-width:1;stroke-miterlimit:4;stroke-dasharray:none;stroke-dashoffset:9.44881821;stroke-opacity:1"
       id="rect1504"
       width="2.3623514"
       height="4.7955728"
       x="126.85827"
       y="145.8804"
       rx="0.56696391"
       ry="0.58892393" />
    <rect
       ry="0.58892393"
       rx="0.56696391"
       y="-130.43723"
       x="147.09702"
       height="4.7955728"
       width="2.3623514"
       id="rect1506"
       style="opacity:1;fill:#ffffff;fill-opacity:1;stroke:none;stroke-width:1;stroke-miterlimit:4;stroke-dasharray:none;stroke-dashoffset:9.44881821;stroke-opacity:1"
       transform="rotate(90)" />
    <rect
       transform="rotate(90)"
       style="opacity:1;fill:#000000;fill-opacity:1;stroke:none;stroke-width:0.99999994;stroke-miterlimit:4;stroke-dasharray:none;stroke-dashoffset:9.44881821;stroke-opacity:1"
       id="rect1508"
       width="1.4646579"
       height="3.7561383"
       x="147.52223"
       y="-129.91751"
       rx="0.35151765"
       ry="0.46127537" />
    <rect
       ry="0.46127537"
       rx="0.35151765"
       y="-150.13263"
       x="-128.77177"
       height="3.7561383"
       width="1.4646579"
       id="rect1510"
       style="opacity:1;fill:#000000;fill-opacity:1;stroke:none;stroke-width:0.99999994;stroke-miterlimit:4;stroke-dasharray:none;stroke-dashoffset:9.44881821;stroke-opacity:1"
       transform="scale(-1)" />
    <g
       id="g2665"
       transform="matrix(0.08195535,0,0,0.08195535,103.36035,144.72596)">
      <path
         style="fill:#ffffff;fill-opacity:1;stroke:#ffffff;stroke-width:0.503874;stroke-linecap:butt;stroke-linejoin:miter;stroke-miterlimit:4;stroke-dasharray:none;stroke-opacity:1"
         d="m 142.683,143.40317 c -15.28035,7.38359 -27.48869,32.29807 -27.48869,32.29807 0,0 -9.19,-11.75156 -15.517532,-11.75156 0,0 1.432712,-3.75888 2.606392,-5.15372 6.43854,1.19114 12.13513,8.39192 12.13513,8.39192 10.21368,-14.2812 14.7366,-20.75477 28.27689,-23.80932"
         id="path38120"
         inkscape:connector-curvature="0"
         sodipodi:nodetypes="cccccc" />
      <path
         sodipodi:nodetypes="cccccc"
         inkscape:connector-curvature="0"
         id="path38204"
         d="m 99.316252,143.40317 c 15.280348,7.38359 27.488698,32.29807 27.488698,32.29807 0,0 9.18999,-11.75156 15.51753,-11.75156 0,0 -1.43271,-3.75888 -2.6064,-5.15372 -6.43854,1.19114 -12.13512,8.39192 -12.13512,8.39192 -10.21368,-14.2812 -14.73661,-20.75477 -28.276892,-23.80932"
         style="fill:#ffffff;fill-opacity:1;stroke:#ffffff;stroke-width:0.503874;stroke-linecap:butt;stroke-linejoin:miter;stroke-miterlimit:4;stroke-dasharray:none;stroke-opacity:1" />
    </g>
    <rect
       ry="0.32731077"
       rx="0.38822433"
       y="171.84351"
       x="113.12843"
       height="3.3575733"
       width="4.1151795"
       id="rect2667"
       style="opacity:1;fill:#ffffff;fill-opacity:1;stroke:none;stroke-width:0.06997625;stroke-miterlimit:4;stroke-dasharray:none;stroke-dashoffset:9.44881821;stroke-opacity:1" />
    <g
       transform="matrix(0.08195535,0,0,0.08195535,105.23831,160.44855)"
       id="g2673"
       style="fill:#000000">
      <path
         sodipodi:nodetypes="cccccc"
         inkscape:connector-curvature="0"
         id="path2669"
         d="m 142.683,143.40317 c -15.28035,7.38359 -27.48869,32.29807 -27.48869,32.29807 0,0 -9.19,-11.75156 -15.517532,-11.75156 0,0 1.432712,-3.75888 2.606392,-5.15372 6.43854,1.19114 12.13513,8.39192 12.13513,8.39192 10.21368,-14.2812 14.7366,-20.75477 28.27689,-23.80932"
         style="fill:#000000;fill-opacity:1;stroke:#ffffff;stroke-width:0.503874;stroke-linecap:butt;stroke-linejoin:miter;stroke-miterlimit:4;stroke-dasharray:none;stroke-opacity:1" />
      <path
         style="fill:#000000;fill-opacity:1;stroke:#ffffff;stroke-width:0.503874;stroke-linecap:butt;stroke-linejoin:miter;stroke-miterlimit:4;stroke-dasharray:none;stroke-opacity:1"
         d="m 99.316252,143.40317 c 15.280348,7.38359 27.488698,32.29807 27.488698,32.29807 0,0 9.18999,-11.75156 15.51753,-11.75156 0,0 -1.43271,-3.75888 -2.6064,-5.15372 -6.43854,1.19114 -12.13512,8.39192 -12.13512,8.39192 -10.21368,-14.2812 -14.73661,-20.75477 -28.276892,-23.80932"
         id="path2671"
         inkscape:connector-curvature="0"
         sodipodi:nodetypes="cccccc" />
    </g>
    <rect
       style="opacity:1;fill:none;fill-opacity:1;stroke:#ffffff;stroke-width:2.97025108;stroke-miterlimit:4;stroke-dasharray:none;stroke-dashoffset:9.44881821;stroke-opacity:1"
       id="rect2675"
       width="19.678581"
       height="20.279938"
       x="107.72588"
       y="169.5621"
       rx="1.6814224"
       ry="0.66673177" />
    <rect
       transform="rotate(-90)"
       ry="0.29896632"
       rx="0.20066769"
       y="130.71451"
       x="-159.17593"
       height="5.1820841"
       width="1.1594136"
       id="rect2677"
       style="opacity:1;fill:#000000;fill-opacity:1;stroke:none;stroke-width:1.44315839;stroke-miterlimit:4;stroke-dasharray:none;stroke-dashoffset:9.44881821;stroke-opacity:1" />
    <rect
       ry="0.61753905"
       rx="1.4222621"
       y="155.76077"
       x="128.03481"
       height="18.783646"
       width="16.645491"
       id="rect2681"
       style="opacity:1;fill:none;fill-opacity:1;stroke:none;stroke-width:2.62906432;stroke-miterlimit:4;stroke-dasharray:none;stroke-dashoffset:9.44881821;stroke-opacity:1" />
  </g>
</svg>
